<svg width="20" height="20" viewBox="0 0 20 20" fill="none" xmlns="http://www.w3.org/2000/svg">
<path d="M17.3625 3.79353C16.4746 2.90885 15.2722 2.41211 14.0188 2.41211C12.7653 2.41211 11.563 2.90885 10.675 3.79353L10 4.46853L9.32501 3.79353C8.43706 2.90885 7.2347 2.41211 5.98126 2.41211C4.72781 2.41211 3.52545 2.90885 2.6375 3.79353C1.75244 4.68255 1.25554 5.88594 1.25554 7.14041C1.25554 8.39488 1.75244 9.59827 2.6375 10.4873L9.55626 17.406C9.61436 17.4646 9.68348 17.5111 9.75965 17.5428C9.83581 17.5746 9.9175 17.5909 10 17.5909C10.0825 17.5909 10.1642 17.5746 10.2404 17.5428C10.3165 17.5111 10.3857 17.4646 10.4438 17.406L17.3625 10.4873C18.2476 9.59827 18.7445 8.39488 18.7445 7.14041C18.7445 5.88594 18.2476 4.68255 17.3625 3.79353ZM16.4813 9.59978L10 16.081L3.51876 9.59978C2.86726 8.94711 2.50136 8.0626 2.50136 7.14041C2.50136 6.21822 2.86726 5.33371 3.51876 4.68103C4.1725 4.02916 5.05804 3.6631 5.98126 3.6631C6.90447 3.6631 7.79001 4.02916 8.44376 4.68103L9.55626 5.79353C9.61436 5.85211 9.68348 5.89861 9.75965 5.93034C9.83581 5.96207 9.9175 5.97841 10 5.97841C10.0825 5.97841 10.1642 5.96207 10.2404 5.93034C10.3165 5.89861 10.3857 5.85211 10.4438 5.79353L11.5563 4.68103C12.21 4.02916 13.0955 3.6631 14.0188 3.6631C14.942 3.6631 15.8275 4.02916 16.4813 4.68103C17.1327 5.33371 17.4987 6.21822 17.4987 7.14041C17.4987 8.0626 17.1327 8.94711 16.4813 9.59978Z" fill="#717171"/>
</svg>
